# xmcd
#
# Track frame offsets:
#	150
#	13583
#	24906
#	34537
#	46703
#	58124
#	66393
#	75894
#	84910
#	97181
#	105229
#	113665
#	122169
#	131897
#	140688
#	154432
#	166070
#	176931
#	188834
#	199452
#
# Disc length: 2809 seconds
#
# Revision: 2
# Processed by: cddbd v1.5.2PL0 Copyright (c) Steve Scherf et al.
# Submitted via: audiograbber 1.83.01
#
DISCID=0b0af714
DTITLE=Leo Dan - Lo Esencial De Leo Dan 3.1
DYEAR=1975
DGENRE=Ballad
TTITLE0=Como Te Extraño Mi Amor
TTITLE1=Solo Una Vez
TTITLE2=Pero Raquel
TTITLE3=Que Tiene La Niña
TTITLE4=Por Un Caminito
TTITLE5=Celia
TTITLE6=Maria Isabel
TTITLE7=Martita
TTITLE8=Susana Llamame
TTITLE9=No Se Su Nombre
TTITLE10=Mi Coche Tiene Novia
TTITLE11=Siento Que Te Amo
TTITLE12=En El Parque
TTITLE13=El Solitario
TTITLE14=Un Dia De Otoño
TTITLE15=Domingo Volvere
TTITLE16=Santiago Querido
TTITLE17=Fanny
TTITLE18=Libre Solterito Y Sin Nadie
TTITLE19=Nunca Me Impediras Amarte
EXTD=MS®
EXTT0=MS®
EXTT1=
EXTT2=
EXTT3=
EXTT4=
EXTT5=
EXTT6=
EXTT7=
EXTT8=
EXTT9=
EXTT10=
EXTT11=
EXTT12=
EXTT13=
EXTT14=
EXTT15=
EXTT16=
EXTT17=
EXTT18=
EXTT19=
PLAYORDER=
